#!OML:ASF F:\VICON\USERDATA\INSTALL\rory3\rory3.ASF
:FULLY-SPECIFIED
:DEGREES
71
root -5.424857373768913 18.057391918815014 -1.8427945779987864 -184.9305372220927 26.73919975311296 -187.34754281827233
lfemur -13.151921190785604 -7.079702275742649 -21.63519663087189
ltibia 18.1564801038544
lfoot 5.255970451267979 -39.19023164560446
ltoes 23.13391407899386
rfemur 6.008511232568418 -6.010064913827495 6.49042721409322
rtibia 33.61655424630235
rfoot 12.202354795639643 -32.59869061310389
rtoes 18.119866107852207
lowerback -7.977141989436703 5.629298284765678 11.119951813613987
upperback -3.348582624159339 9.479806489208459 14.239129734738459
thorax -0.05717681332853086 5.750829926991454 9.503874567120416
lowerneck -4.0919395483449845 -22.32666963662883 -5.236804709120877
upperneck 27.142498029258306 -28.131201869926677 -4.6203921841292575
head 8.840289177780965 -13.2966655234512 -2.5520663733097013
lclavicle -5.793616358373313e-15 -1.0910752806276133e-14
lhumerus 17.335323770814107 -14.739760926383664 89.53272952923783
lradius 38.74966972820624
lwrist 50.57803317811609
lhand -14.662046443180985 43.97011643328142
lfingers 7.125020000000001
lthumb -168.5201046098507 0.7803650642477606
rclavicle -5.793616358373311e-15 -1.0910752806276136e-14
rhumerus 43.556687846014114 45.50914518473607 -77.4837159884816
rradius 30.720954702238934
rwrist -9.28545038489792
rhand -0.08304552026851297 -2.325849757184031
rfingers 7.125020000000001
rthumb 25.526745742399157 -30.397333969863578
72
root -5.393207989476129 18.061952445454576 -2.0103727199205417 -184.2369955598628 23.51712361186648 -186.55279676831384
lfemur -14.269152030991183 -8.33755512927068 -20.846417890511105
ltibia 19.500603909220082
lfoot 6.400099906557872 -40.32147084625024
ltoes 25.33348943303158
rfemur 7.263852752867704 -6.293318185924861 7.8871055164504185
rtibia 32.587393106718906
rfoot 14.060938653282964 -32.95728421216365
rtoes 20.429151573951046
lowerback -7.669403934677899 6.766859601877952 12.584591583352207
upperback -4.53557276277931 11.489610501066668 13.703775572859342
thorax -1.4588846619106246 6.820829168250498 8.039761321521281
lowerneck -4.197097762403323 -22.422002491366293 -4.239298272888993
upperneck 25.27161932111902 -30.017613367699514 -3.0054719452308283
head 8.409565357399698 -14.364272678006294 -2.3016599057978855
lclavicle -5.637440694405915e-15 -1.0782290151986827e-14
lhumerus 20.846325402877163 -9.754732749348317 86.32840658683
lradius 44.98880182525834
lwrist 49.0404915971365
lhand -17.79845170928174 36.62147222337163
lfingers 7.125020000000001
lthumb -171.5389264716793 -8.460738785715492
rclavicle -5.63744069440592e-15 -1.0782290151986825e-14
rhumerus 54.08497282299525 47.551015585922585 -72.20411930047786
rradius 34.71826725201928
rwrist -3.3135218640336443
rhand -2.370906441108218 1.3785606287819547
rfingers 7.125020000000001
rthumb 23.32271859775944 -26.84794186675061
73
root -5.355525908395572 18.07644931391341 -2.168599398929894 -182.95874406784793 20.30643836329663 -185.49569035303858
lfemur -15.353859871878125 -9.53851980348244 -20.060332987099812
ltibia 20.299613222854262
lfoot 8.088909386671997 -41.175649067235895
ltoes 27.95153497315024
rfemur 8.31292586999549 -6.3953083218866364 9.434445932624627
rtibia 31.573144308646782
rfoot 15.750273230984739 -33.64068173079004
rtoes 23.0068004480357
lowerback -7.481023723999103 7.781952935402407 13.945243340878502
upperback -5.7930790552554665 13.298494709265068 12.858393840005384
thorax -2.681459352742936 7.730165151173637 6.352541599558514
lowerneck -4.442755250151576 -22.088956931012742 -3.258383363941902
upperneck 23.221974693881403 -31.401648097465426 -1.3141743598012683
head 7.994021145860193 -15.278933593519564 -2.0294180918369573
lclavicle -5.0819595296306265e-15 -1.030800948774064e-14
lhumerus 25.19762411825578 -4.869576435991124 83.45653077105061
lradius 50.990154217276746
lwrist 46.251654557400826
lhand -19.817560809145448 30.897664362949058
lfingers 7.125020000000001
lthumb -173.4859768943909 -10.772531492808142
rclavicle -5.08195952963062e-15 -1.0308009487740642e-14
rhumerus 64.80625190965075 47.646113743841994 -67.23831856938625
rradius 38.472226996446814
rwrist 0.6985839594526304
rhand -5.504141281171599 4.623051767307828
rfingers 7.125020000000001
rthumb 20.305507740942737 -23.875139201133344
74
root -5.31303220129969 18.094608054088965 -2.3446890249458483 -181.97568782426274 16.808439510020683 -184.92878040450267
lfemur -16.47321631015769 -10.852418529225826 -19.35410368570611
ltibia 20.79320257437552
lfoot 10.044793361298243 -42.03210849407988
ltoes 30.649634562165488
rfemur 9.139803363197371 -6.547615728780205 11.058844022379338
rtibia 30.345899609871815
rfoot 17.094113231429244 -34.79150812285457
rtoes 25.319256622290723
lowerback -7.475530366261737 8.59836344169677 15.00223059849932
upperback -7.180910282493642 14.799330640801024 11.734160977714554
thorax -3.8039378335923 8.441603557240192 4.5454301788333265
lowerneck -4.80273449288001 -21.770896544583685 -2.511034161162369
upperneck 21.07786945314549 -32.464882142214584 0.2476680815285679
head 7.5943760905934905 -16.03111472249208 -1.7474469819757539
lclavicle -4.9375426990332104e-15 -1.0182308515389453e-14
lhumerus 29.945375688359576 -0.20436192604100256 81.0313913535774
lradius 56.266539274191025
lwrist 42.91436780352752
lhand -21.17376806590963 26.64100104325064
lfingers 7.125020000000001
lthumb -174.79497406393867 -10.77305366786193
rclavicle -4.937542699033207e-15 -1.0182308515389453e-14
rhumerus 74.96063863834198 46.34161975365126 -62.913336550578
rradius 41.62913531313211
rwrist 3.074937792496293
rhand -8.965068026079763 7.1528862592836
rfingers 7.125020000000001
rthumb 16.973451790621013 -21.64823264078872
75
root -5.264119860298372 18.111961387964307 -2.527634186972037 -181.35289453284113 13.160820688348661 -184.81190141100745
lfemur -17.62392655619803 -12.211872660951347 -18.646716710468674
ltibia 21.29690439224214
lfoot 12.131466496930802 -42.86131642157641
ltoes 33.3973916723682
rfemur 10.016538961898265 -6.805242413722498 12.776881991170853
rtibia 28.836759412347128
rfoot 18.28272522935466 -36.15599166121792
rtoes 27.2024062875283
lowerback -7.615968810890858 9.25887965549119 15.792062394353735
upperback -8.630611694844955 16.076417069253736 10.478717500006107
thorax -4.840141376381084 9.028130563237218 2.786779953009768
lowerneck -5.20613557615404 -21.645470744998438 -2.0659114227687083
upperneck 19.003954602905257 -33.11424800075048 1.5897309374502582
head 7.2322004784385445 -16.48973660585402 -1.4660666110988967
lclavicle -4.877657186606673e-15 -1.0126293738358128e-14
lhumerus 35.215433258884445 4.22204770029191 79.0015527222478
lradius 60.837300626993304
lwrist 39.737703495812056
lhand -22.077332083381414 23.610232687277627
lfingers 7.125020000000001
lthumb -175.66655461596457 -10.826082274512046
rclavicle -4.8776571866066684e-15 -1.012629373835813e-14
rhumerus 84.30390310691048 44.383982712461176 -59.219029465233604
rradius 44.558493630484065
rwrist 4.556245348639049
rhand -12.306114462837272 9.12538499763641
rfingers 7.125020000000001
rthumb 13.756921542052027 -19.920386354725782
